<svg width="35" height="37" viewBox="0 0 35 37" fill="none" xmlns="http://www.w3.org/2000/svg">
<rect x="26.7822" y="3.00391" width="4.00724" height="8.27136" rx="1.37647" fill="#BA181B"/>
<path d="M0 14.1867C0 13.1047 0.517635 12.088 1.39259 11.4514L16.9968 0.0994617C17.0537 0.0580714 17.1335 0.0987129 17.1335 0.16907V36.3703C17.1335 36.4179 17.095 36.4564 17.0474 36.4564H1.83529C0.821689 36.4564 0 35.6347 0 34.6211L0 14.1867Z" fill="#BA181B"/>
<path d="M34.2668 14.1867C34.2668 13.1047 33.7492 12.088 32.8743 11.4514L17.2701 0.0994617C17.2132 0.0580714 17.1333 0.0987129 17.1333 0.16907V36.3703C17.1333 36.4179 17.1719 36.4564 17.2194 36.4564H32.4316C33.4452 36.4564 34.2668 35.6347 34.2668 34.6211V14.1867Z" fill="#FFF5D1"/>
<circle cx="17.1204" cy="21.1492" r="14.0125" fill="white"/>
<path d="M14.7352 32.6215L18.1409 26.9452H6.67487C9.9671 32.1674 14.7352 32.6215 14.7352 32.6215Z" fill="#BA181B"/>
<path d="M5.88019 25.0153C4.06379 19.7931 6.67487 15.1386 6.67487 15.1386L12.5781 25.0153H5.88019Z" fill="#BA181B"/>
<path d="M17.4597 9.34883C12.2375 8.66768 7.92357 13.4357 7.92357 13.4357L11.5564 19.2254L17.4597 9.34883Z" fill="#BA181B"/>
<path d="M27.3364 15.4791C25.0659 11.1651 19.7302 9.34883 19.7302 9.34883L15.8703 15.4791H27.3364Z" fill="#BA181B"/>
<path d="M27.3364 27.2857C29.8339 21.3824 28.3581 17.2955 28.3581 17.2955H21.3195L27.3364 27.2857Z" fill="#BA181B"/>
<path d="M16.5515 32.962C22.1142 33.189 25.8606 29.1021 25.8606 29.1021L22.4548 23.0853L16.5515 32.962Z" fill="#BA181B"/>
<path d="M19.3896 25.0153H14.7352L12.5781 21.1554L14.7352 17.2955H19.049L21.3195 21.1554L19.3896 25.0153Z" fill="#BA181B"/>
</svg>
