<svg width="156" height="21" viewBox="0 0 156 21" fill="none" xmlns="http://www.w3.org/2000/svg">
<path d="M0.885636 20L0.885636 5.91011H4.78786V9.8909L4.23788 8.73856C4.65691 7.74337 5.3291 6.9926 6.25446 6.48627C7.17982 5.96249 8.30596 5.70059 9.63289 5.70059V9.47186C9.4583 9.4544 9.30116 9.44568 9.16148 9.44568C9.02181 9.42822 8.8734 9.41949 8.71626 9.41949C7.59885 9.41949 6.69095 9.74249 5.99257 10.3885C5.31164 11.017 4.97118 12.0035 4.97118 13.3479V20H0.885636ZM18.9524 20.2095C17.3461 20.2095 15.9319 19.8952 14.7097 19.2667C13.505 18.6382 12.5709 17.7826 11.9075 16.7001C11.244 15.6002 10.9123 14.3518 10.9123 12.9551C10.9123 11.5408 11.2353 10.2925 11.8813 9.20997C12.5448 8.11002 13.4439 7.2545 14.5788 6.64341C15.7137 6.01487 16.997 5.70059 18.4286 5.70059C19.8079 5.70059 21.0476 5.99741 22.1475 6.59103C23.2649 7.1672 24.1467 8.00526 24.7927 9.10521C25.4387 10.1877 25.7617 11.4884 25.7617 13.0074C25.7617 13.1646 25.7529 13.3479 25.7355 13.5574C25.718 13.7495 25.7006 13.9328 25.6831 14.1074H14.2383V11.7242H23.5356L21.9642 12.4313C21.9642 11.698 21.8158 11.0607 21.519 10.5194C21.2222 9.97819 20.8119 9.55916 20.2881 9.26235C19.7643 8.94808 19.1532 8.79094 18.4548 8.79094C17.7564 8.79094 17.1366 8.94808 16.5954 9.26235C16.0716 9.55916 15.6613 9.98692 15.3645 10.5456C15.0677 11.0869 14.9193 11.7329 14.9193 12.4836V13.1122C14.9193 13.8804 15.0851 14.5613 15.4169 15.155C15.7661 15.7311 16.2462 16.1763 16.8573 16.4906C17.4858 16.7874 18.2191 16.9358 19.0572 16.9358C19.8079 16.9358 20.4627 16.8224 21.0214 16.5954C21.5976 16.3684 22.1213 16.0279 22.5928 15.574L24.7665 17.931C24.1205 18.6643 23.3086 19.2318 22.3309 19.6333C21.3531 20.0175 20.227 20.2095 18.9524 20.2095ZM37.0456 5.70059C38.163 5.70059 39.1582 5.92757 40.0312 6.38152C40.9216 6.81801 41.62 7.49893 42.1264 8.42429C42.6327 9.33219 42.8858 10.502 42.8858 11.9337V20H38.8003V12.5622C38.8003 11.4273 38.5471 10.5893 38.0408 10.048C37.5519 9.50678 36.8536 9.23616 35.9457 9.23616C35.2997 9.23616 34.7148 9.37584 34.191 9.65519C33.6846 9.91708 33.2831 10.3274 32.9863 10.8861C32.7069 11.4448 32.5672 12.1606 32.5672 13.0336V20H28.4817V5.91011L32.3839 5.91011V9.81233L31.6506 8.6338C32.1569 7.69099 32.8815 6.96641 33.8243 6.46008C34.7671 5.95376 35.8409 5.70059 37.0456 5.70059ZM52.3509 20.2095C50.6922 20.2095 49.4002 19.7905 48.4748 18.9524C47.5495 18.0969 47.0868 16.8311 47.0868 15.155V2.79357H51.1723V15.1026C51.1723 15.6962 51.3295 16.1589 51.6437 16.4906C51.958 16.8049 52.3858 16.962 52.927 16.962C53.573 16.962 54.123 16.7874 54.577 16.4382L55.6769 19.3191C55.2579 19.6159 54.7515 19.8429 54.1579 20C53.5818 20.1397 52.9794 20.2095 52.3509 20.2095ZM44.9131 9.36711V6.22438H54.6817V9.36711H44.9131ZM64.3562 20L67.4466 4.49588C67.7085 3.20387 68.2323 2.20867 69.0179 1.51029C69.8211 0.794446 70.8687 0.436525 72.1607 0.436525C72.7194 0.436525 73.2432 0.515093 73.732 0.672229C74.2209 0.829366 74.6225 1.04761 74.9368 1.32696L74.0987 2.68881C73.6098 2.23486 72.9638 2.00789 72.1607 2.00789C71.3575 2.00789 70.7115 2.22613 70.2227 2.66262C69.7513 3.08165 69.4195 3.76258 69.2275 4.70539L68.8084 6.72198L68.7037 7.53385L66.2157 20H64.3562ZM64.33 7.79574L64.6181 6.25057H73.1297L72.8154 7.79574H64.33ZM78.8148 20.1309C77.5403 20.1309 76.4316 19.8952 75.4888 19.4238C74.5634 18.935 73.8388 18.254 73.3151 17.3811C72.8087 16.5081 72.5556 15.478 72.5556 14.2907C72.5556 12.7193 72.896 11.3226 73.5769 10.1004C74.2579 8.86078 75.2007 7.89177 76.4054 7.19339C77.6101 6.47754 78.9807 6.11962 80.5171 6.11962C81.7917 6.11962 82.8916 6.35533 83.817 6.82674C84.7598 7.29815 85.4844 7.97034 85.9907 8.84332C86.5145 9.7163 86.7764 10.7464 86.7764 11.9337C86.7764 13.505 86.4359 14.9105 85.755 16.1502C85.0741 17.3723 84.1313 18.3413 82.9266 19.0572C81.7393 19.773 80.3687 20.1309 78.8148 20.1309ZM78.9458 18.481C80.0981 18.481 81.1195 18.2104 82.0099 17.6691C82.9178 17.1104 83.6249 16.3422 84.1313 15.3645C84.6551 14.3867 84.917 13.2781 84.917 12.0384C84.917 10.6766 84.5154 9.62027 83.7122 8.86951C82.9266 8.11875 81.8179 7.74336 80.3862 7.74336C79.2513 7.74336 78.2299 8.02272 77.322 8.58143C76.4141 9.14013 75.6983 9.90835 75.1745 10.8861C74.6682 11.8464 74.415 12.9551 74.415 14.2121C74.415 15.5565 74.8078 16.6041 75.5935 17.3549C76.3967 18.1056 77.5141 18.481 78.9458 18.481ZM89.106 20L91.8297 6.25057L93.6106 6.25057L92.8249 10.3099L92.6154 9.60281C93.2265 8.3981 94.0296 7.51639 95.0248 6.95768C96.0375 6.39898 97.2946 6.11962 98.7961 6.11962L98.4556 7.92669C98.3683 7.92669 98.281 7.92669 98.1937 7.92669C98.1239 7.90923 98.0366 7.9005 97.9318 7.9005C96.4652 7.9005 95.2518 8.32826 94.2915 9.18378C93.3487 10.0218 92.7027 11.2964 92.3535 13.0074L90.9655 20H89.106ZM106.999 20V5.91011H110.901V9.8909L110.351 8.73856C110.77 7.74337 111.442 6.9926 112.368 6.48627C113.293 5.96249 114.419 5.70059 115.746 5.70059V9.47186C115.571 9.4544 115.414 9.44568 115.275 9.44568C115.135 9.42822 114.986 9.41949 114.829 9.41949C113.712 9.41949 112.804 9.74249 112.106 10.3885C111.425 11.017 111.084 12.0035 111.084 13.3479V20H106.999ZM125.065 20.2095C123.459 20.2095 122.045 19.8952 120.823 19.2667C119.618 18.6382 118.684 17.7826 118.021 16.7001C117.357 15.6002 117.025 14.3518 117.025 12.9551C117.025 11.5408 117.348 10.2925 117.994 9.20997C118.658 8.11002 119.557 7.2545 120.692 6.64341C121.827 6.01487 123.11 5.70059 124.542 5.70059C125.921 5.70059 127.161 5.99741 128.261 6.59103C129.378 7.1672 130.26 8.00526 130.906 9.10521C131.552 10.1877 131.875 11.4884 131.875 13.0074C131.875 13.1646 131.866 13.3479 131.849 13.5574C131.831 13.7495 131.814 13.9328 131.796 14.1074H120.351V11.7242H129.649L128.077 12.4313C128.077 11.698 127.929 11.0607 127.632 10.5194C127.335 9.97819 126.925 9.55916 126.401 9.26235C125.877 8.94808 125.266 8.79094 124.568 8.79094C123.87 8.79094 123.25 8.94808 122.708 9.26235C122.185 9.55916 121.774 9.98692 121.478 10.5456C121.181 11.0869 121.032 11.7329 121.032 12.4836V13.1122C121.032 13.8804 121.198 14.5613 121.53 15.155C121.879 15.7311 122.359 16.1763 122.97 16.4906C123.599 16.7874 124.332 16.9358 125.17 16.9358C125.921 16.9358 126.576 16.8224 127.134 16.5954C127.711 16.3684 128.234 16.0279 128.706 15.574L130.88 17.931C130.234 18.6643 129.422 19.2318 128.444 19.6333C127.466 20.0175 126.34 20.2095 125.065 20.2095ZM141.587 20.2095C139.981 20.2095 138.567 19.8952 137.345 19.2667C136.14 18.6382 135.206 17.7826 134.542 16.7001C133.879 15.6002 133.547 14.3518 133.547 12.9551C133.547 11.5408 133.87 10.2925 134.516 9.20997C135.18 8.11002 136.079 7.2545 137.214 6.64341C138.349 6.01487 139.632 5.70059 141.064 5.70059C142.443 5.70059 143.682 5.99741 144.782 6.59103C145.9 7.1672 146.782 8.00526 147.428 9.10521C148.074 10.1877 148.397 11.4884 148.397 13.0074C148.397 13.1646 148.388 13.3479 148.37 13.5574C148.353 13.7495 148.335 13.9328 148.318 14.1074H136.873V11.7242H146.17L144.599 12.4313C144.599 11.698 144.451 11.0607 144.154 10.5194C143.857 9.97819 143.447 9.55916 142.923 9.26235C142.399 8.94808 141.788 8.79094 141.09 8.79094C140.391 8.79094 139.772 8.94808 139.23 9.26235C138.706 9.55916 138.296 9.98692 137.999 10.5456C137.703 11.0869 137.554 11.7329 137.554 12.4836V13.1122C137.554 13.8804 137.72 14.5613 138.052 15.155C138.401 15.7311 138.881 16.1763 139.492 16.4906C140.121 16.7874 140.854 16.9358 141.692 16.9358C142.443 16.9358 143.098 16.8224 143.656 16.5954C144.232 16.3684 144.756 16.0279 145.228 15.574L147.401 17.931C146.755 18.6643 145.943 19.2318 144.966 19.6333C143.988 20.0175 142.862 20.2095 141.587 20.2095ZM151.117 20V0.567471H155.202V20H151.117Z" fill="#BA181B"/>
</svg>
